{
	"asset":{
		"version":"2.0",
		"generator":"Maxon Cinema 4D 2023.2.0 (#200000219)"
	},
	"scenes":[{
		"nodes":[0]
	}],
	"nodes":[{
		"scale":[1.0,
		1.0,
		1.0],
		"name":"Loft.1",
		"mesh":0,
		"translation":[0.0,
		0.0,
		0.0],
		"rotation":[0.0,
		-0.37460657954216006,
		0.0,
		-0.9271838665008545]
	}],
	"meshes":[{
		"name":"Loft.1",
		"primitives":[{
			"attributes":{
				"POSITION":1,
				"NORMAL":2,
				"TEXCOORD_0":3
			},
			"indices":0
		}]
	}],
	"accessors":[{
		"bufferView":0,
		"type":"SCALAR",
		"componentType":5123,
		"count":51732,
		"byteOffset":0,
		"min":[0],
		"max":[15793]
	},
	{
		"bufferView":1,
		"type":"VEC3",
		"componentType":5126,
		"count":15794,
		"byteOffset":0,
		"min":[-2.9240500926971437,
		-2.299999952316284,
		-2.9273440837860109],
		"max":[2.9412941932678224,
		4.800000190734863,
		2.9324426651000978]
	},
	{
		"bufferView":1,
		"type":"VEC3",
		"componentType":5126,
		"count":15794,
		"byteOffset":12,
		"min":[-0.9994578957557678,
		-0.9829760193824768,
		-0.9995231032371521],
		"max":[0.9994578957557678,
		0.9856019616127014,
		0.9995231032371521]
	},
	{
		"bufferView":1,
		"type":"VEC2",
		"componentType":5126,
		"count":15794,
		"byteOffset":24,
		"min":[0.0,
		0.0],
		"max":[1.0,
		1.0]
	}],
	"bufferViews":[{
		"buffer":0,
		"byteOffset":0,
		"byteLength":103464,
		"target":34963
	},
	{
		"buffer":0,
		"byteOffset":103464,
		"byteLength":505408,
		"target":34962,
		"byteStride":32
	}],
	"buffers":[{
		"uri":"data:application/octet-stream;base64,",
		"byteLength":608872
	}]
}